# xmcd
#
# Track frame offsets:
#	150
#	2427
#	22920
#	43812
#	65477
#	88920
#	108647
#
# Disc length: 1849 seconds
#
# Revision: 1
# Processed by: cddbd v1.5.1PL0 Copyright (c) Steve Scherf et al.
# Submitted via: CDex 1.50Beta5
#
DISCID=52073707
DTITLE=富沢美智恵 - Voice
DYEAR=1994
DGENRE=
TTITLE0=Introduction to“Voice”
TTITLE1=Hello
TTITLE2=Voice
TTITLE3=ずっとあなたとMerry Christmas
TTITLE4=Lovin’You
TTITLE5=Naughty Boy
TTITLE6=Just Love One Love World Love
EXTD=
EXTT0=
EXTT1=
EXTT2=
EXTT3=
EXTT4=
EXTT5=
EXTT6=
PLAYORDER=
